# xmcd
#
# Track frame offsets:
#	200
#	16170
#	29897
#	49872
#	68837
#	85365
#	102492
#	125145
#	141527
#	157445
#	175820
#	193612
#	210262
#	221660
#	240102
#	261892
#	291012
#	310065
#
# Disc length: 4436 seconds
#
# Revision: 0
# Processed by: cddbd v1.4PL0 Copyright (c) Steve Scherf et al.
# Submitted via: dBpowerAMP V4.0
#
DISCID=13115212
DTITLE=Gaither's - Singin' With the Saints
DYEAR=1998
DGENRE=Gospel
TTITLE0=Singin' With the Saints
TTITLE1=He Keeps Me Singin'
TTITLE2=When God Dips His Love In My Heart
TTITLE3=He Pilots My Ship
TTITLE4=Highway to Heaven
TTITLE5=I'll Be There
TTITLE6=I'm Not Giving Up
TTITLE7=If It Had Not Been
TTITLE8=Walk Around Me Jesus
TTITLE9=The Old - Fashioned Meeting
TTITLE10=Mexico
TTITLE11=I'm Rich
TTITLE12=Only God Know's
TTITLE13=I'm Gonna Move
TTITLE14=I know Where I Am Now
TTITLE15=Sitting at the Feet of Jesus
TTITLE16=I Am Redeemed
TTITLE17=It Is Finished
EXTD=
EXTT0=
EXTT1=
EXTT2=
EXTT3=
EXTT4=
EXTT5=
EXTT6=
EXTT7=
EXTT8=
EXTT9=
EXTT10=
EXTT11=
EXTT12=
EXTT13=
EXTT14=
EXTT15=
EXTT16=
EXTT17=
PLAYORDER=
